<?xml version="1.0" encoding="UTF-8"?>
<svg version="1.1" xmlns="http://www.w3.org/2000/svg" width="512" height="512">
<path d="M0 0 C3.56783755 0.01129858 7.13561578 -0.00089369 10.70344949 -0.00984204 C17.65954383 -0.02364879 24.61545447 -0.01631334 31.57153979 -0.00116646 C39.69730804 0.01584263 47.82303242 0.01246495 55.94881299 0.00873946 C70.45882318 0.0028843 84.96874611 0.01694183 99.4787333 0.04168689 C113.51359726 0.06561849 127.54834478 0.0726812 141.58322549 0.06219471 C156.9243917 0.05075247 172.2655043 0.04889475 187.6066699 0.0632928 C189.24624737 0.06481841 190.88582483 0.06633876 192.52540231 0.06785381 C193.73498728 0.06899053 193.73498728 0.06899053 194.96900831 0.07015022 C200.6149253 0.07486617 206.26081811 0.07306097 211.9067347 0.06878841 C218.79673163 0.06383168 225.68661912 0.06997925 232.57659116 0.08968271 C236.08273771 0.09946681 239.58871864 0.10475758 243.09487367 0.09679019 C281.5737739 0.03609772 313.8800125 7.71498205 341.85617471 35.58636463 C354.32335848 48.89126431 362.49236212 65.80831222 368.08273721 83.00823963 C368.42824624 84.05467639 368.42824624 84.05467639 368.78073525 85.1222533 C374.01126193 102.16129379 374.21628303 118.96713392 374.17707026 136.63561416 C374.17228637 140.27651774 374.18489397 143.91737115 374.19508767 147.55825794 C374.21218027 154.66873945 374.21313563 161.77913222 374.20787477 168.88962892 C374.20381376 174.67615047 374.20529939 180.46264604 374.21062303 186.24916637 C374.21137145 187.07647232 374.21211987 187.90377826 374.21289097 188.75615409 C374.21442264 190.43747039 374.21596099 192.11878668 374.21750594 193.80010297 C374.23119658 209.52539414 374.22581764 225.2506354 374.21432073 240.97592541 C374.20439297 255.32030499 374.21732724 269.66455549 374.24125492 284.00891516 C374.26571549 298.78560546 374.27523669 313.56223581 374.26860219 328.33894593 C374.26512525 336.61576054 374.26724037 344.89247601 374.28485322 353.16927516 C374.29966267 360.2152553 374.30009771 367.26106646 374.28278231 374.30704359 C374.27434094 377.89244198 374.27195132 381.47753967 374.28743386 385.0629214 C374.36364259 404.05815691 373.57097175 422.50368878 366.52023721 440.38323963 C366.2221415 441.15877185 365.9240458 441.93430408 365.61691689 442.73333728 C354.84736438 469.85851862 333.34608515 489.90164448 306.85178018 501.64788806 C302.71794509 503.35650111 298.50596274 504.8243988 294.27023721 506.25823963 C293.44064492 506.54006092 292.61105264 506.82188221 291.75632119 507.11224353 C280.09039283 510.90245399 268.77268195 512.9596626 256.50387979 512.90264881 C255.24562261 512.90873991 253.98736543 512.91483101 252.69097924 512.9211067 C249.24192851 512.93732721 245.79310899 512.93522537 242.34403372 512.92973173 C238.60691842 512.92703903 234.8698617 512.94163521 231.13277078 512.95382679 C223.82670074 512.97479168 216.5207102 512.9794267 209.21461362 512.9776389 C203.26785373 512.97632634 197.32111844 512.98016049 191.37436318 512.98756397 C189.65509629 512.9896634 187.9358294 512.991761 186.21656251 512.99385679 C184.93254898 512.99542208 184.93254898 512.99542208 183.62259579 512.99701899 C167.46328865 513.01588653 151.30402698 513.01488236 135.1447134 513.00804967 C120.40701415 513.00248114 105.6694891 513.0232764 90.93183053 513.05641013 C75.75519961 513.09026252 60.57865186 513.10530086 45.40198255 513.10069311 C36.89923223 513.09845948 28.39664274 513.10352753 19.89392495 513.1285857 C12.651743 513.14974911 5.40980997 513.15304394 -1.83238274 513.13428611 C-5.51730703 513.1252184 -9.20176917 513.12370335 -12.88665557 513.14464176 C-48.17868913 513.33171124 -78.04886032 505.79995522 -104.22976279 480.88323963 C-131.03826744 453.19508092 -138.88984466 416.0091887 -138.75266147 378.7812438 C-138.74349091 375.08860039 -138.75763915 371.39602809 -138.76858115 367.70339954 C-138.78624431 360.49624322 -138.78258156 353.28925476 -138.77093059 346.08209222 C-138.7618487 340.2183654 -138.76069266 334.35468518 -138.76502585 328.49095333 C-138.76563879 327.65223947 -138.76625172 326.81352561 -138.76688322 325.94939618 C-138.76816229 324.24488348 -138.76945915 322.54037079 -138.77077359 320.83585811 C-138.78214344 304.9026745 -138.76912202 288.96958337 -138.74757212 273.03641493 C-138.72970114 259.40173278 -138.73281225 245.7671869 -138.75124717 232.13250721 C-138.77271203 216.24969787 -138.78104858 200.3669693 -138.76879811 184.48414749 C-138.76752409 182.78666839 -138.7662666 181.08918928 -138.76502585 179.39171016 C-138.76440875 178.55679412 -138.76379165 177.72187807 -138.76315585 176.86166153 C-138.75971999 171.01288681 -138.76549288 165.16416385 -138.77494407 159.31539714 C-138.78622799 152.17644206 -138.78299087 145.03766262 -138.76182109 137.89872735 C-138.75139629 134.26496408 -138.74703979 130.63149235 -138.7604177 126.99773204 C-138.81105696 111.99001918 -138.49255635 97.96600532 -134.22976279 83.50823963 C-133.84792276 82.1651353 -133.46610955 80.82202336 -133.08432364 79.47890365 C-128.79731208 64.94355764 -121.55630472 51.61864447 -111.22976279 40.50823963 C-110.38671592 39.58527088 -109.54366904 38.66230213 -108.67507529 37.71136463 C-95.31145755 23.68924977 -78.26499727 13.98003487 -60.04226279 7.69573963 C-59.29138389 7.43003162 -58.54050498 7.16432361 -57.76687217 6.89056385 C-38.86083758 0.75189017 -19.71491178 -0.08725758 0 0 Z " fill="#28BDA1" transform="translate(138.22976279258728,-0.5082396268844604)"/>
<path d="M0 0 C0.90067703 -0.00979385 1.80135406 -0.01958771 2.72932434 -0.02967834 C39.89734258 -0.3511425 39.89734258 -0.3511425 57.20703125 4.23828125 C58.03879883 4.44727051 58.87056641 4.65625977 59.72753906 4.87158203 C102.37009395 15.77311608 140.39363767 41.59215225 166.20703125 77.23828125 C166.62404297 77.81094727 167.04105469 78.38361328 167.47070312 78.97363281 C187.71216031 107.12536305 202.1909767 143.3617188 202.41015625 178.41015625 C202.4172612 179.16590439 202.42436615 179.92165253 202.4316864 180.70030212 C202.66243239 212.47298677 202.66243239 212.47298677 199.20703125 227.23828125 C198.98128418 228.22763672 198.75553711 229.21699219 198.52294922 230.23632812 C187.9164672 275.5617716 162.99898942 315.68420969 125.20703125 343.23828125 C124.34368164 343.86814941 124.34368164 343.86814941 123.46289062 344.51074219 C83.33878599 373.3541642 32.68433284 385.96104504 -16.23046875 378.61328125 C-67.21489172 370.16695122 -112.74702249 342.27964255 -143.08154297 300.46191406 C-172.24635913 259.62444368 -183.88092471 208.8180024 -176.65698242 159.20336914 C-175.88678154 154.82864348 -174.91545885 150.53518018 -173.79296875 146.23828125 C-173.57866211 145.3968457 -173.36435547 144.55541016 -173.14355469 143.68847656 C-161.88338328 100.59824276 -136.64305476 60.92030438 -99.79296875 35.23828125 C-99.23109863 34.83738281 -98.66922852 34.43648437 -98.09033203 34.0234375 C-69.49260466 13.67459741 -35.34511317 0.31968362 0 0 Z " fill="#FBFDFC" transform="translate(243.79296875,66.76171875)"/>
<path d="M0 0 C1.22847656 0.42410156 2.45695313 0.84820312 3.72265625 1.28515625 C23.27499147 8.2546257 39.55439912 21.57998278 52 38 C52.56203125 38.73605469 53.1240625 39.47210938 53.703125 40.23046875 C69.60230573 62.53116172 73.06700632 89.60143515 69.37109375 116.29296875 C64.81555182 142.14429704 48.3875112 165.51207065 27.44921875 180.87109375 C9.61441031 192.7345441 -8.6461152 198.18312457 -29.98852539 198.24023438 C-32.16527101 198.24990128 -34.34105454 198.28098116 -36.51757812 198.3125 C-61.33116569 198.50323938 -84.56315649 187.6646223 -102.47802734 170.66650391 C-112.18662446 161.05532764 -119.07465515 150.25030597 -125 138 C-125.40992188 137.17371094 -125.81984375 136.34742188 -126.2421875 135.49609375 C-136.38260971 112.89631558 -135.69867656 84.51920138 -127.1875 61.5625 C-116.57008534 34.62972358 -96.51159578 14.40707352 -70.1640625 2.7265625 C-49.70312651 -5.97239831 -21.09568954 -8.28851449 0 0 Z " fill="#28BDA1" transform="translate(287,159)"/>
</svg>
