<?xml version="1.0" standalone="no"?>
<!DOCTYPE svg PUBLIC "-//W3C//DTD SVG 20010904//EN"
 "http://www.w3.org/TR/2001/REC-SVG-20010904/DTD/svg10.dtd">
<svg version="1.0" xmlns="http://www.w3.org/2000/svg"
 width="133.000000pt" height="105.000000pt" viewBox="0 0 133.000000 105.000000"
 preserveAspectRatio="xMidYMid meet">

<g transform="translate(0.000000,105.000000) scale(0.100000,-0.100000)"
fill="#000000" stroke="none">
<path d="M595 997 c-60 -18 -98 -42 -141 -87 -48 -50 -80 -109 -89 -161 -4
-22 -12 -39 -20 -39 -25 0 -120 -34 -155 -56 -73 -44 -161 -172 -146 -211 3
-8 1 -11 -4 -8 -6 4 -10 -18 -10 -59 0 -127 74 -247 188 -303 l57 -28 362 -3
c352 -3 453 4 438 28 -3 6 1 7 9 4 28 -11 123 56 110 77 -4 7 -3 9 3 6 13 -8
34 16 64 73 20 38 24 59 24 140 0 83 -3 101 -27 145 -43 82 -159 174 -219 175
-19 0 -29 20 -29 56 0 37 -53 134 -97 176 -21 20 -60 47 -88 59 -59 26 -171
34 -230 16z m142 -168 c63 -24 107 -89 104 -157 -2 -53 -27 -104 -99 -201
l-55 -75 -24 30 c-13 16 -46 62 -73 103 -75 115 -78 201 -7 268 44 42 98 54
154 32z m-188 -319 c12 -22 21 -44 21 -48 0 -4 -24 -20 -53 -36 -28 -17 -90
-56 -137 -87 -47 -32 -87 -54 -88 -48 -2 5 8 51 22 102 15 50 28 102 31 115 7
39 14 42 100 42 l83 0 21 -40z m380 26 c12 -14 51 -122 51 -141 0 -10 -140
-105 -154 -105 -2 0 -34 -18 -71 -40 l-66 -41 -91 82 c-83 77 -89 84 -71 97
10 7 17 18 15 23 -1 6 2 8 7 4 6 -3 20 0 32 7 16 9 23 10 26 2 2 -6 22 -31 44
-55 l40 -44 30 35 c37 43 93 125 110 163 10 22 19 27 49 27 21 0 43 -6 49 -14z
m-345 -281 c58 -50 105 -93 105 -97 1 -5 -93 -8 -208 -8 -220 0 -236 3 -225
46 6 21 192 155 211 151 7 -1 60 -42 117 -92z m437 40 c11 -28 20 -70 22 -95
l2 -45 -146 -3 c-128 -2 -149 0 -168 15 -22 18 -22 18 73 74 53 31 92 60 88
64 -4 5 -2 5 4 2 6 -3 28 5 50 18 21 13 43 23 48 22 4 -2 17 -25 27 -52z"/>
<path d="M663 740 c-46 -19 -55 -69 -18 -105 29 -30 54 -32 83 -5 31 29 29 73
-4 99 -30 23 -30 23 -61 11z"/>
</g>
</svg>
