<?xml version="1.0" encoding="UTF-8"?>
<svg version="1.1" xmlns="http://www.w3.org/2000/svg" width="48" height="48">
<path d="M0 0 C12.54 0 25.08 0 38 0 C38 15.84 38 31.68 38 48 C25.46 48 12.92 48 0 48 C0 32.16 0 16.32 0 0 Z " fill="#F2F8F6" transform="translate(5,0)"/>
<path d="M0 0 C4.875 4.625 4.875 4.625 6 8 C6.66 8.66 7.32 9.32 8 10 C7.67 10.99 7.34 11.98 7 13 C8.2375 14.175625 8.2375 14.175625 9.5 15.375 C12 18 12 18 12 20 C11.34 20.33 10.68 20.66 10 21 C11.00445663 23.24071094 11.87754985 24.87754985 13.625 26.625 C14.07875 27.07875 14.5325 27.5325 15 28 C15 28.66 15 29.32 15 30 C9.32627136 32.83686432 1.21498151 32.10384702 -5 32.25 C-6.0725 32.27578125 -7.145 32.3015625 -8.25 32.328125 C-11 32 -11 32 -12.875 30.484375 C-13.24625 29.99453125 -13.6175 29.5046875 -14 29 C-13.01 28.67 -12.02 28.34 -11 28 C-9.89163577 26.11683841 -9.89163577 26.11683841 -9 24 C-8.34 23.01 -7.68 22.02 -7 21 C-8.32 20.67 -9.64 20.34 -11 20 C-10.57847656 19.51789062 -10.15695312 19.03578125 -9.72265625 18.5390625 C-8.90087891 17.59160156 -8.90087891 17.59160156 -8.0625 16.625 C-7.51722656 15.99851562 -6.97195312 15.37203125 -6.41015625 14.7265625 C-4.93041376 13.04367666 -4.93041376 13.04367666 -4 11 C-4.66 11 -5.32 11 -6 11 C-4.74194623 6.49197399 -3.09592835 3.5087188 0 0 Z " fill="#3B5E4F" transform="translate(23,4)"/>
<path d="M0 0 C6.6 0 13.2 0 20 0 C20 12.87 20 25.74 20 39 C12.74 39 5.48 39 -2 39 C-1.01 38.505 -1.01 38.505 0 38 C0 37.34 0 36.68 0 36 C3.59711928 35.27005441 7.20060329 34.59025242 10.8125 33.9375 C11.78832031 33.76089844 12.76414062 33.58429687 13.76953125 33.40234375 C14.87361328 33.20318359 14.87361328 33.20318359 16 33 C15.55527344 32.52949219 15.11054687 32.05898438 14.65234375 31.57421875 C14.08644531 30.95160156 13.52054688 30.32898438 12.9375 29.6875 C12.36902344 29.07261719 11.80054688 28.45773438 11.21484375 27.82421875 C10.81394531 27.22222656 10.41304687 26.62023437 10 26 C10.33 25.01 10.66 24.02 11 23 C11.66 23 12.32 23 13 23 C12.566875 22.54109375 12.13375 22.0821875 11.6875 21.609375 C11.130625 20.99578125 10.57375 20.3821875 10 19.75 C9.443125 19.14671875 8.88625 18.5434375 8.3125 17.921875 C7 16 7 16 7 12 C6.04583255 9.65128013 4.91789252 7.89262868 3.375 5.875 C2 4 2 4 2 2 C1.34 2 0.68 2 0 2 C0 1.34 0 0.68 0 0 Z " fill="#F9FCFB" transform="translate(22,1)"/>
<path d="M0 0 C12.54 0 25.08 0 38 0 C38 15.84 38 31.68 38 48 C25.46 48 12.92 48 0 48 C0 32.16 0 16.32 0 0 Z M1 1 C1 14.2 1 27.4 1 41 C12.88 41 24.76 41 37 41 C37 27.8 37 14.6 37 1 C25.12 1 13.24 1 1 1 Z " fill="#889F94" transform="translate(5,0)"/>
<path d="M0 0 C11.88 0 23.76 0 36 0 C36 1.65 36 3.3 36 5 C24.12 5 12.24 5 0 5 C0 3.35 0 1.7 0 0 Z " fill="#D9E4E0" transform="translate(6,42)"/>
<path d="M0 0 C3.63 0 7.26 0 11 0 C11 3.63 11 7.26 11 11 C7.37 11 3.74 11 0 11 C0 7.37 0 3.74 0 0 Z " fill="#C33B39" transform="translate(18,20)"/>
<path d="M0 0 C1.39777075 2.7955415 0.70402042 4.52065985 0.125 7.5625 C-0.05804688 8.55378906 -0.24109375 9.54507812 -0.4296875 10.56640625 C-1 13 -1 13 -2 14 C-2.28306234 16.54756104 -2.44815786 19.09510022 -2.62109375 21.65234375 C-3 24 -3 24 -5 26 C-5.33 26.66 -5.66 27.32 -6 28 C-3.36 28.33 -0.72 28.66 2 29 C2 29.33 2 29.66 2 30 C0.22992286 30.08114106 -1.54122098 30.13925505 -3.3125 30.1875 C-4.29863281 30.22230469 -5.28476563 30.25710937 -6.30078125 30.29296875 C-9 30 -9 30 -10.85546875 28.48828125 C-11.23316406 27.99714844 -11.61085938 27.50601563 -12 27 C-11.01 26.67 -10.02 26.34 -9 26 C-7.89163577 24.11683841 -7.89163577 24.11683841 -7 22 C-6.34 21.01 -5.68 20.02 -5 19 C-6.32 18.67 -7.64 18.34 -9 18 C-8.57847656 17.51789062 -8.15695312 17.03578125 -7.72265625 16.5390625 C-7.17480469 15.90742188 -6.62695312 15.27578125 -6.0625 14.625 C-5.51722656 13.99851562 -4.97195312 13.37203125 -4.41015625 12.7265625 C-2.93041376 11.04367666 -2.93041376 11.04367666 -2 9 C-2.66 9 -3.32 9 -4 9 C-2.94124926 5.59687262 -1.99097846 2.98646769 0 0 Z " fill="#436959" transform="translate(21,6)"/>
<path d="M0 0 C0.5775 0.66 1.155 1.32 1.75 2 C3.99653977 4.44290923 3.99653977 4.44290923 8 4 C8 4.66 8 5.32 8 6 C1.18229737 9.40885132 -8.67967033 8.11666046 -16 7 C-15.34 5.02 -14.68 3.04 -14 1 C-13.34 1.33 -12.68 1.66 -12 2 C-9.9625237 2.22858114 -7.91959697 2.41024278 -5.875 2.5625 C-4.23144531 2.68818359 -4.23144531 2.68818359 -2.5546875 2.81640625 C-1.71164063 2.87699219 -0.86859375 2.93757813 0 3 C0 2.01 0 1.02 0 0 Z " fill="#2E5647" transform="translate(30,28)"/>
<path d="M0 0 C0 3.3 0 6.6 0 10 C-3.3 10 -6.6 10 -10 10 C-1.50943396 0 -1.50943396 0 0 0 Z " fill="#E0E6E2" transform="translate(29,21)"/>
<path d="M0 0 C2.08304538 -0.05418326 4.16649768 -0.09287551 6.25 -0.125 C7.99023438 -0.15980469 7.99023438 -0.15980469 9.765625 -0.1953125 C12.82786046 -0.0103949 14.44202751 0.39176977 17 2 C15.22925083 2.02705729 13.45838289 2.04642195 11.6875 2.0625 C10.70136719 2.07410156 9.71523437 2.08570313 8.69921875 2.09765625 C6 2 6 2 3 1 C3 1.99 3 2.98 3 4 C5.97 4 8.94 4 12 4 C12 4.33 12 4.66 12 5 C8.04 5 4.08 5 0 5 C0 3.35 0 1.7 0 0 Z " fill="#F1F8F7" transform="translate(6,42)"/>
<path d="M0 0 C1.98 0.66 3.96 1.32 6 2 C6 2.66 6 3.32 6 4 C5.01 4.495 5.01 4.495 4 5 C4.4640625 5.928125 4.4640625 5.928125 4.9375 6.875 C5.625 8.25 6.3125 9.625 7 11 C6.34 11.66 5.68 12.32 5 13 C4.01 12.34 3.02 11.68 2 11 C1.34 11 0.68 11 0 11 C0 7.37 0 3.74 0 0 Z " fill="#446958" transform="translate(29,20)"/>
<path d="M0 0 C1.32 0 2.64 0 4 0 C4 1.65 4 3.3 4 5 C-2.27 5 -8.54 5 -15 5 C-10.80866878 2.90433439 -9.68835147 2.84662483 -5.25 3.375 C-4.26515625 3.48585937 -3.2803125 3.59671875 -2.265625 3.7109375 C-1.51796875 3.80632813 -0.7703125 3.90171875 0 4 C0 2.68 0 1.36 0 0 Z " fill="#F9FCFB" transform="translate(38,42)"/>
<path d="M0 0 C0.5625 1.9375 0.5625 1.9375 1 4 C0.67 4.33 0.34 4.66 0 5 C2.64 5.33 5.28 5.66 8 6 C8 6.33 8 6.66 8 7 C6.22992286 7.08114106 4.45877902 7.13925505 2.6875 7.1875 C1.70136719 7.22230469 0.71523437 7.25710937 -0.30078125 7.29296875 C-3 7 -3 7 -4.85546875 5.48828125 C-5.23316406 4.99714844 -5.61085938 4.50601563 -6 4 C-4.02 2.68 -2.04 1.36 0 0 Z " fill="#517567" transform="translate(15,29)"/>
<path d="M0 0 C6.93 0.495 6.93 0.495 14 1 C14 1.66 14 2.32 14 3 C9.38 3 4.76 3 0 3 C0 2.01 0 1.02 0 0 Z " fill="#889D8F" transform="translate(9,43)"/>
<path d="M0 0 C3 0 6 0 9 0 C9 0.99 9 1.98 9 3 C6.03 3 3.06 3 0 3 C0 2.01 0 1.02 0 0 Z " fill="#829D91" transform="translate(29,43)"/>
<path d="M0 0 C0.33 0 0.66 0 1 0 C1.33 1.98 1.66 3.96 2 6 C-0.31 6 -2.62 6 -5 6 C-4.34 5.01 -3.68 4.02 -3 3 C-2.34 3 -1.68 3 -1 3 C-0.67 2.01 -0.34 1.02 0 0 Z " fill="#F2FAF9" transform="translate(27,24)"/>
</svg>
